v -0.028524 0.118786 0.000189
v -0.028524 1.245577 0.000189
v -0.028524 0.118786 -0.659040
v -0.028524 1.245577 -0.659040
v 0.004682 0.118786 0.000189
v 0.067997 1.245577 0.000189
v 0.004682 0.118786 -0.659040
v 0.067997 1.245577 -0.659040
v 0.067997 0.728164 0.000189
v 0.067997 1.041334 -0.659040
v 0.031233 0.728164 0.000189
v 0.031233 1.041334 -0.659040
v 0.031233 0.743482 -0.659040
v 0.067997 1.031121 0.000189
vt 0.577918 0.490634
vt 0.815180 0.490634
vt 0.699831 0.610142
vt 0.503440 0.906838
vt 0.503496 0.742055
vt 0.674199 0.742114
vt 0.674928 0.785530
vt 0.840018 0.742055
vt 0.852101 0.785530
vt 0.431019 0.472485
vt 0.309846 0.343228
vt 0.568901 0.343228
vt 0.456017 0.490634
vt 0.577189 0.619892
vt 0.318135 0.619892
vt 0.497287 0.272723
vt 0.674460 0.272723
vt 0.509577 0.316943
vt 0.675189 0.305212
vt 0.675200 0.272723
vt 0.845902 0.274329
vt 0.842894 0.848375
vt 0.674928 0.817930
vt 0.848412 0.817930
vt 0.496558 0.171796
vt 0.496558 0.342499
vt 0.000364 0.171796
vt 0.000364 0.000364
vt 0.496558 0.171067
vt 0.000364 0.171067
vt 0.863923 0.817201
vt 0.674928 0.817201
vt 0.863923 0.786259
vt 0.496558 0.870207
vt 0.307564 0.901148
vt 0.000364 0.870207
vt 0.309118 0.343228
vt 0.187315 0.495964
vt 0.000364 0.343228
vt 0.000364 0.698775
vt 0.171067 0.869478
vt 0.000364 0.869478
vt 0.497287 0.121070
vt 0.617992 0.000364
vt 0.617992 0.241775
vt 0.739426 0.241775
vt 0.618721 0.121070
vt 0.739426 0.000364
vt 0.502711 0.620621
vt 0.490480 0.698046
vt 0.000364 0.620621
vt 0.999636 0.271994
vt 0.497287 0.271994
vt 0.812956 0.242504
vt 0.207972 0.496693
vt 0.317406 0.619892
vt 0.000364 0.619892
vt 0.503440 0.741326
vt 0.624145 0.620621
vt 0.744850 0.741326
vt 0.171796 0.869478
vt 0.171796 0.698775
vt 0.342499 0.869478
vt 0.690335 0.343228
vt 0.811040 0.463933
vt 0.569630 0.463933
vt 0.740155 0.163440
vt 0.771682 0.000364
vt 0.771682 0.195721
vn 0.999100 -0.042500 -0.001000
vn 0.999100 -0.043500 0.000000
vn 1.000000 0.000000 0.000000
vn 0.000000 -0.903300 -0.429100
vn 0.000000 1.000000 0.000000
vn 0.000000 0.000000 -1.000000
vn -1.000000 0.000000 0.000000
vn 0.000000 -0.000000 1.000000
vn 0.000000 -1.000000 0.000000
f 11/1/1 7/2/1 13/3/1
f 11/4/2 5/5/2 7/6/2
f 11/7/3 13/8/3 12/9/3
f 11/10/4 12/11/4 9/12/4
f 10/13/4 9/14/4 12/15/4
f 9/16/3 10/17/3 14/18/3
f 6/19/3 14/20/3 10/21/3
f 8/22/3 6/23/3 10/24/3
f 6/25/5 8/26/5 2/27/5
f 2/28/5 8/29/5 4/30/5
f 10/31/6 12/32/6 8/33/6
f 8/34/6 12/35/6 4/36/6
f 12/37/6 7/38/6 4/39/6
f 4/40/6 7/41/6 3/42/6
f 3/43/7 1/44/7 4/45/7
f 1/46/7 2/47/7 4/48/7
f 9/49/8 6/50/8 2/51/8
f 9/52/8 2/53/8 11/54/8
f 5/55/8 11/56/8 2/57/8
f 2/58/8 1/59/8 5/60/8
f 5/61/9 1/62/9 7/63/9
f 3/64/9 7/65/9 1/66/9
f 13/67/6 7/68/6 12/69/6
