# Blender v2.74 (sub 0) OBJ File: ''
# www.blender.org
mtllib ladder.mtl
o Cube
v 0.926615 0.234710 -0.120348
v 0.926615 0.234710 0.126223
v 0.680044 0.234710 0.126223
v 0.680044 0.234710 -0.120348
v 0.926615 3.732217 -0.120348
v 0.926615 3.732217 0.126223
v 0.680044 3.732217 0.126223
v 0.680044 3.732217 -0.120348
v 0.680044 1.983464 0.126223
v 0.680044 1.983464 -0.120348
v 0.680044 2.857840 0.126223
v 0.680044 2.857840 -0.120348
v 0.680044 1.109087 0.126223
v 0.680044 1.109087 -0.120348
v 0.680044 3.295029 0.126223
v 0.680044 3.295029 -0.120348
v 0.680044 1.546275 0.126223
v 0.680044 1.546275 -0.120348
v 0.680044 2.420652 0.126223
v 0.680044 2.420652 -0.120348
v -0.613395 3.734955 0.126223
v 0.680044 0.671899 0.126223
v 0.680044 0.671899 -0.120348
v 0.680044 3.513623 0.126223
v 0.680044 3.513623 -0.120348
v -0.613395 3.734955 -0.120348
v 0.680044 1.764870 0.126223
v 0.680044 1.764870 -0.120348
v 0.680044 2.639246 0.126223
v 0.680044 2.639246 -0.120348
v -0.613395 3.734955 0.126223
v 0.680044 0.890493 0.126223
v 0.680044 0.890493 -0.120348
v 0.680044 3.076435 0.126223
v 0.680044 3.076435 -0.120348
v -0.610112 0.236755 -0.120348
v 0.680044 1.327681 0.126223
v 0.680044 1.327681 -0.120348
v 0.680044 2.202058 0.126223
v 0.680044 2.202058 -0.120348
v -0.610112 0.236755 0.126223
v 0.680044 0.453305 0.126223
v 0.680044 0.453305 -0.120348
v -0.610112 0.671899 0.126223
v -0.610112 0.671899 -0.120348
v -0.610112 0.453305 0.126223
v -0.610112 0.453305 -0.120348
v -0.616678 1.109087 0.126223
v -0.616678 1.109087 -0.120348
v -0.616678 1.327681 0.126223
v -0.616678 1.327681 -0.120348
v -0.616678 1.983464 0.126223
v -0.616678 1.983464 -0.120348
v -0.616678 1.764870 0.126223
v -0.616678 1.764870 -0.120348
v -0.616678 2.420652 0.126223
v -0.616678 2.420652 -0.120348
v -0.616678 2.639246 0.126223
v -0.616678 2.639246 -0.120348
v -0.613395 3.295029 0.126223
v -0.613395 3.295029 -0.120348
v -0.613395 3.076435 0.126223
v -0.613395 3.076435 -0.120348
v -0.852711 3.734955 0.126223
v -0.852711 3.734955 -0.120348
v -0.852711 3.734955 0.126223
v -0.852711 0.240705 0.126223
v -0.852711 0.240705 -0.120348
v -0.852711 0.240705 0.126223
vt 0.830208 0.748275
vt 0.863009 0.719196
vt 0.888788 0.748275
vt 0.541706 0.618507
vt 0.572701 0.587512
vt 0.603697 0.618507
vt 0.271887 0.622572
vt 0.228052 0.622572
vt 0.228052 0.000798
vt 0.279071 0.920431
vt 0.052934 0.958746
vt 0.046442 0.920431
vt 0.888788 0.684968
vt 0.863008 0.714047
vt 0.830208 0.684968
vt 0.046442 0.999202
vt 0.046442 0.960341
vt 0.275802 0.960341
vt 0.891910 0.198297
vt 0.891910 0.237158
vt 0.848076 0.237158
vt 0.772232 0.179378
vt 0.541706 0.179378
vt 0.541706 0.135544
vt 0.318803 0.877803
vt 0.318817 0.838942
vt 0.549344 0.839022
vt 0.280222 0.759688
vt 0.052902 0.798008
vt 0.046442 0.759688
vt 0.317208 0.663668
vt 0.316859 0.702202
vt 0.316885 0.625134
vt 0.891910 0.329613
vt 0.891910 0.368474
vt 0.848076 0.368474
vt 0.891910 0.370069
vt 0.891910 0.408930
vt 0.848076 0.408930
vt 0.772232 0.133948
vt 0.541706 0.133949
vt 0.541706 0.090114
vt 0.554178 0.877803
vt 0.554178 0.838942
vt 0.784705 0.838942
vt 0.788836 0.759111
vt 0.561516 0.797431
vt 0.555056 0.759111
vt 0.905955 0.522135
vt 0.880176 0.551214
vt 0.847375 0.522135
vt 0.849011 0.854169
vt 0.823232 0.883248
vt 0.790431 0.854169
vt 0.772232 0.224808
vt 0.541706 0.224808
vt 0.541706 0.180974
vt 0.046442 0.878380
vt 0.046442 0.839519
vt 0.276969 0.839519
vt 0.552583 0.759111
vt 0.325263 0.797431
vt 0.318803 0.759111
vt 0.894441 0.810030
vt 0.868661 0.839109
vt 0.835861 0.810030
vt 0.888788 0.654293
vt 0.863008 0.683372
vt 0.830208 0.654293
vt 0.771649 0.404976
vt 0.541706 0.404976
vt 0.541706 0.361142
vt 0.046442 0.918836
vt 0.046455 0.879975
vt 0.276399 0.880055
vt 0.548746 0.958715
vt 0.318803 0.958716
vt 0.318803 0.919855
vt 0.888788 0.623619
vt 0.863008 0.652698
vt 0.830208 0.623619
vt 0.541706 0.359547
vt 0.767581 0.316488
vt 0.775790 0.359547
vt 0.281099 0.715030
vt 0.272911 0.758093
vt 0.046442 0.715030
vt 0.776363 0.000798
vt 0.768175 0.043861
vt 0.541706 0.000798
vt 0.776363 0.045456
vt 0.768175 0.088519
vt 0.541706 0.045456
vt 0.541706 0.495057
vt 0.766988 0.452001
vt 0.775216 0.495057
vt 0.555056 0.668971
vt 0.555056 0.625137
vt 0.784416 0.625137
vt 0.846480 0.476705
vt 0.846480 0.520540
vt 0.802646 0.520540
vt 0.889468 0.854169
vt 0.889468 0.898004
vt 0.850607 0.898004
vt 0.846480 0.157841
vt 0.802646 0.157841
vt 0.802646 0.080117
vt 0.846480 0.316475
vt 0.802646 0.316475
vt 0.802646 0.238753
vt 0.846480 0.395793
vt 0.802646 0.395793
vt 0.802646 0.318071
vt 0.790431 0.719196
vt 0.828613 0.786902
vt 0.790431 0.808434
vt 0.848076 0.196702
vt 0.881011 0.167776
vt 0.906415 0.196702
vt 0.044632 0.702392
vt 0.000798 0.702377
vt 0.000825 0.624168
vt 0.181028 0.622572
vt 0.137193 0.622572
vt 0.137193 0.000798
vt 0.046442 0.000798
vt 0.090168 0.621036
vt 0.046442 0.624118
vt 0.583892 0.620102
vt 0.583892 0.620839
vt 0.541706 0.620839
vt 0.802646 0.610109
vt 0.802646 0.567565
vt 0.846480 0.567565
vt 0.788708 0.616767
vt 0.777958 0.616767
vt 0.777958 0.000798
vt 0.273482 0.000798
vt 0.317208 0.003883
vt 0.273482 0.623539
vt 0.668879 0.618257
vt 0.700123 0.587512
vt 0.730377 0.618257
vt 0.407200 0.623443
vt 0.364124 0.003044
vt 0.407200 0.000798
vt 0.408796 0.000798
vt 0.451930 0.000798
vt 0.441223 0.622604
vt 0.855988 0.778949
vt 0.830208 0.749870
vt 0.888788 0.749870
vt 0.636288 0.618507
vt 0.605292 0.587512
vt 0.667284 0.587512
vt 0.135598 0.000798
vt 0.135598 0.622575
vt 0.091763 0.000798
vt 0.548163 0.960311
vt 0.548163 0.999172
vt 0.318803 0.960311
vt 0.886937 0.114007
vt 0.886937 0.157841
vt 0.848076 0.114007
vt 0.780299 0.998628
vt 0.550939 0.998628
vt 0.780299 0.959767
vt 0.886937 0.046227
vt 0.886937 0.090062
vt 0.848077 0.046227
vt 0.545273 0.625137
vt 0.553461 0.668200
vt 0.318803 0.668200
vt 0.546123 0.837347
vt 0.318803 0.799027
vt 0.552583 0.799027
vt 0.549330 0.879398
vt 0.549330 0.918259
vt 0.318803 0.879398
vt 0.886937 0.284183
vt 0.886937 0.328018
vt 0.848076 0.284183
vt 0.886937 0.238753
vt 0.886937 0.282588
vt 0.848076 0.238753
vt 0.772233 0.226404
vt 0.772233 0.270238
vt 0.541706 0.226404
vt 0.782376 0.712858
vt 0.555056 0.674538
vt 0.788836 0.674538
vt 0.781498 0.799027
vt 0.787958 0.837347
vt 0.554178 0.837347
vt 0.886937 0.567565
vt 0.886937 0.611399
vt 0.848076 0.567565
vt 0.886937 0.000798
vt 0.886937 0.044632
vt 0.848077 0.000798
vt 0.545273 0.714453
vt 0.553461 0.757516
vt 0.318803 0.757516
vt 0.782376 0.757516
vt 0.555056 0.719196
vt 0.788836 0.719196
vt 0.273762 0.799604
vt 0.280222 0.837924
vt 0.046442 0.837924
vt 0.886937 0.410525
vt 0.886937 0.454360
vt 0.848076 0.410526
vt 0.886937 0.455955
vt 0.886937 0.499790
vt 0.848076 0.455955
vt 0.767581 0.271833
vt 0.775790 0.314892
vt 0.541706 0.314892
vt 0.780882 0.958172
vt 0.550939 0.958172
vt 0.780882 0.919311
vt 0.777667 0.879398
vt 0.784143 0.917716
vt 0.550939 0.917716
vt 0.039659 0.829221
vt 0.039659 0.873055
vt 0.000798 0.829221
vt 0.541706 0.450406
vt 0.541706 0.406572
vt 0.771649 0.450406
vt 0.054630 0.625713
vt 0.281099 0.668776
vt 0.046442 0.668776
vt 0.054630 0.670372
vt 0.281099 0.713435
vt 0.046442 0.713435
vt 0.326992 0.669795
vt 0.553461 0.712858
vt 0.318803 0.712858
vt 0.541706 0.540487
vt 0.541706 0.496652
vt 0.771065 0.540487
vt 0.771065 0.585916
vt 0.541706 0.585916
vt 0.771065 0.542082
vt 0.044632 0.783791
vt 0.044632 0.827626
vt 0.000798 0.783791
vt 0.000798 0.874651
vt 0.039659 0.874651
vt 0.000798 0.918485
vt 0.846480 0.000798
vt 0.846481 0.078522
vt 0.802646 0.000798
vt 0.846480 0.159436
vt 0.846480 0.237158
vt 0.802646 0.159436
vt 0.846480 0.397388
vt 0.846480 0.475110
vt 0.802646 0.397388
vt 0.790431 0.645151
vt 0.828613 0.623619
vt 0.828613 0.712858
vt 0.790431 0.923341
vt 0.790431 0.884844
vt 0.834266 0.923341
vt 0.044632 0.703987
vt 0.044632 0.782196
vt 0.000798 0.703987
vt 0.226457 0.000798
vt 0.226457 0.622575
vt 0.182623 0.000798
vt 0.001012 0.000798
vt 0.044847 0.000813
vt 0.000798 0.622573
vt 0.541718 0.622434
vt 0.583892 0.623170
vt 0.541706 0.623170
vt 0.834266 0.852574
vt 0.790431 0.852574
vt 0.834266 0.810030
vt 0.801051 0.000985
vt 0.790304 0.616767
vt 0.790304 0.000798
vt 0.318803 0.620456
vt 0.362529 0.000798
vt 0.362529 0.623541
vt 0.845780 0.565969
vt 0.802646 0.565969
vt 0.845780 0.522135
vt 0.495970 0.620542
vt 0.453525 0.623449
vt 0.453525 0.000798
vt 0.497565 0.621991
vt 0.497566 0.000798
vt 0.540110 0.621991
vn -1.000000 0.000000 -0.000000
vn 0.000000 1.000000 0.000000
vn 1.000000 0.000000 0.000000
vn 0.000000 0.000000 1.000000
vn 0.000000 0.000000 -1.000000
vn 0.000000 -1.000000 0.000000
vn 1.000000 -0.007500 0.000000
vn 0.999900 0.015000 0.000000
vn 0.016300 0.999900 -0.000000
usemtl Material
s off
f 42/1/1 43/2/1 4/3/1
f 6/4/2 5/5/2 8/6/2
f 5/7/3 6/8/3 2/9/3
f 22/10/4 44/11/4 46/12/4
f 33/13/1 23/14/1 22/15/1
f 47/16/5 45/17/5 23/18/5
f 14/19/1 33/20/1 32/21/1
f 13/22/6 48/23/6 49/24/6
f 49/25/5 51/26/5 38/27/5
f 37/28/4 50/29/4 48/30/4
f 17/31/4 27/32/4 37/33/4
f 18/34/1 38/35/1 37/36/1
f 28/37/1 18/38/1 17/39/1
f 28/40/2 55/41/2 54/42/2
f 55/43/5 53/44/5 10/45/5
f 9/46/4 52/47/4 54/48/4
f 40/49/1 10/50/1 9/51/1
f 20/52/1 40/53/1 39/54/1
f 19/55/6 56/56/6 57/57/6
f 57/58/5 59/59/5 30/60/5
f 29/61/4 58/62/4 56/63/4
f 12/64/1 30/65/1 29/66/1
f 35/67/1 12/68/1 11/69/1
f 34/70/6 62/71/6 63/72/6
f 63/73/5 61/74/5 16/75/5
f 15/76/4 60/77/4 62/78/4
f 8/79/1 25/80/1 24/81/1
f 61/82/6 16/83/6 15/84/6
f 30/85/6 29/86/6 58/87/6
f 10/88/6 9/89/6 52/90/6
f 38/91/6 37/92/6 50/93/6
f 45/94/6 23/95/6 22/96/6
f 47/97/2 46/98/2 42/99/2
f 1/100/6 2/101/6 3/102/6
f 16/103/1 15/104/1 24/105/1
f 63/106/7 62/107/7 58/108/7
f 57/109/3 56/110/3 52/111/3
f 55/112/3 54/113/3 50/114/3
f 45/115/8 49/116/8 48/117/8
f 41/118/3 36/119/3 47/120/3
f 26/121/3 31/122/3 60/123/3
f 8/124/5 5/125/5 1/126/5
f 2/127/4 6/128/4 7/129/4
f 31/130/4 21/131/4 64/132/4
f 31/133/6 66/134/6 65/135/6
f 66/136/4 64/137/4 67/138/4
f 68/139/1 69/140/1 66/141/1
f 41/142/9 36/143/9 68/144/9
f 26/145/5 36/146/5 68/147/5
f 69/148/4 41/149/4 31/150/4
f 3/151/1 42/152/1 4/153/1
f 7/154/2 6/155/2 8/156/2
f 1/157/3 5/158/3 2/159/3
f 42/160/4 22/161/4 46/162/4
f 32/163/1 33/164/1 22/165/1
f 43/166/5 47/167/5 23/168/5
f 13/169/1 14/170/1 32/171/1
f 14/172/6 13/173/6 49/174/6
f 14/175/5 49/176/5 38/177/5
f 13/178/4 37/179/4 48/180/4
f 17/181/1 18/182/1 37/183/1
f 27/184/1 28/185/1 17/186/1
f 27/187/2 28/188/2 54/189/2
f 28/190/5 55/191/5 10/192/5
f 27/193/4 9/194/4 54/195/4
f 39/196/1 40/197/1 9/198/1
f 19/199/1 20/200/1 39/201/1
f 20/202/6 19/203/6 57/204/6
f 20/205/5 57/206/5 30/207/5
f 19/208/4 29/209/4 56/210/4
f 11/211/1 12/212/1 29/213/1
f 34/214/1 35/215/1 11/216/1
f 35/217/6 34/218/6 63/219/6
f 35/220/5 63/221/5 16/222/5
f 34/223/4 15/224/4 62/225/4
f 7/226/1 8/227/1 24/228/1
f 60/229/6 61/230/6 15/231/6
f 59/232/6 30/233/6 58/234/6
f 53/235/6 10/236/6 52/237/6
f 51/238/6 38/239/6 50/240/6
f 44/241/6 45/242/6 22/243/6
f 43/244/2 47/245/2 42/246/2
f 4/247/6 1/248/6 3/249/6
f 25/250/1 16/251/1 24/252/1
f 59/253/7 63/254/7 58/255/7
f 53/256/3 57/257/3 52/258/3
f 51/259/3 55/260/3 50/261/3
f 44/262/8 45/263/8 48/264/8
f 46/265/3 41/266/3 47/267/3
f 61/268/3 26/269/3 60/270/3
f 4/271/5 8/272/5 1/273/5
f 3/274/4 2/275/4 7/276/4
f 66/277/4 31/278/4 64/279/4
f 26/280/6 31/281/6 65/282/6
f 69/283/4 66/284/4 67/285/4
f 65/286/1 68/287/1 66/288/1
f 69/289/9 41/290/9 68/291/9
f 65/292/5 26/293/5 68/294/5
f 66/295/4 69/296/4 31/297/4
