# Blender v2.74 (sub 0) OBJ File: ''
# www.blender.org
mtllib locker.mtl
o Cube_Cube.001
v -0.479230 -0.014172 0.351042
v -0.479230 3.035760 0.351042
v -0.479230 -0.014172 -0.269178
v -0.479230 3.035760 -0.269178
v 0.515831 -0.014172 0.351042
v 0.515831 3.035760 0.351042
v 0.515831 -0.014172 -0.269178
v 0.515831 3.035760 -0.269178
v 0.515831 2.889848 0.261726
v 0.515831 2.889848 -0.179861
v 0.515831 0.116368 0.261726
v 0.515831 0.116368 -0.179861
v 0.755863 2.889848 -0.146948
v 0.755863 0.116368 -0.146948
v 0.521590 2.889848 0.226623
v 0.521590 0.116368 0.226623
v -0.382537 2.889848 -0.179861
v -0.382537 2.889848 0.261726
v -0.382537 0.116368 -0.179861
v -0.382537 0.116368 0.261726
vt 0.177417 0.569711
vt 0.177417 0.000265
vt 0.363202 0.000264
vt 0.735831 0.000264
vt 0.735831 0.569711
vt 0.550046 0.569711
vt 0.000265 0.599251
vt 0.000264 0.000264
vt 0.176888 0.057889
vt 0.363731 0.569711
vt 0.363731 0.000264
vt 0.549517 0.569711
vt 0.966166 0.000264
vt 0.966166 0.569711
vt 0.850367 0.000264
vt 0.736360 0.558290
vt 0.849838 0.000264
vt 0.849838 0.581366
vt 0.554532 0.767315
vt 0.396865 0.669042
vt 0.615785 0.669042
vt 0.458119 0.570240
vt 0.615785 0.668513
vt 0.396865 0.668513
vt 0.238670 0.767315
vt 0.177417 0.669042
vt 0.396336 0.669042
vt 0.335083 0.570240
vt 0.396336 0.668513
vt 0.177417 0.668513
vt 0.000000 0.000000
vt 0.966695 0.024637
vt 0.983371 0.000264
vt 0.983371 0.569711
vt 0.983900 0.517857
vt 0.999735 0.000264
vt 0.999736 0.545597
vt 0.000264 0.599780
vt 0.116064 0.599780
vt 0.099388 0.624153
vt 0.012763 0.995702
vt 0.012785 0.003205
vt 0.250286 0.999920
vt 0.250080 1.003045
vt 0.000080 0.000080
vt 0.246978 0.004298
vn 0.000000 0.000000 -1.000000
vn 0.000000 0.000000 1.000000
vn -1.000000 0.000000 0.000000
vn 0.000000 1.000000 0.000000
vn 0.000000 -1.000000 0.000000
vn 1.000000 0.000000 0.000000
vn 0.862300 0.000000 0.506400
vn 0.129200 -0.956200 -0.262800
vn 0.098900 0.000000 0.995100
usemtl None
s off
f 8/1/1 7/2/1 3/3/1
f 3/4/1 4/5/1 8/6/1
f 6/7/2 1/8/2 5/9/2
f 2/10/2 1/11/2 6/12/2
f 1/13/3 2/14/3 3/15/3
f 4/16/3 3/17/3 2/18/3
f 8/19/4 4/20/4 6/21/4
f 2/22/4 6/23/4 4/24/4
f 1/25/5 3/26/5 5/27/5
f 7/28/5 5/29/5 3/30/5
f 6/31/6 9/31/6 8/31/6
f 5/31/6 9/31/6 6/31/6
f 9/31/6 5/31/6 11/31/6
f 9/31/6 10/31/6 8/31/6
f 12/32/6 7/33/6 8/34/6
f 10/35/6 12/36/6 8/37/6
f 11/31/6 5/31/6 12/31/6
f 5/38/6 7/39/6 12/40/6
f 9/41/7 11/42/7 13/43/7
f 13/44/7 11/45/7 14/46/7
f 20/31/1 9/41/1 11/31/1
f 20/31/4 12/31/4 19/31/4
f 17/31/6 18/31/6 20/31/6
f 20/31/6 19/31/6 17/31/6
f 9/31/1 20/31/1 18/31/1
f 11/31/4 12/31/4 20/31/4
f 18/31/5 17/31/5 9/31/5
f 9/31/8 17/31/8 8/31/8
f 17/31/9 19/31/9 8/31/9
f 19/31/9 7/33/9 8/31/9
l 15 16
l 15 13
l 14 16
l 14 15
l 10 17
