# Blender v2.74 (sub 0) OBJ File: ''
# www.blender.org
mtllib trapdoor.mtl
o Cube_Cube.002
v -0.981233 -0.000831 1.480486
v -0.981233 0.245556 1.480486
v -0.981233 -0.000831 -0.519514
v -0.981233 0.245556 -0.519514
v 1.018767 -0.000831 1.480486
v 1.018767 0.245556 1.480486
v 1.018767 -0.000831 -0.519514
v 1.018767 0.245556 -0.519514
v -0.906690 0.245556 1.405943
v -0.906690 0.245556 -0.444971
v 0.944225 0.245556 1.405943
v 0.944225 0.245556 -0.444971
v -0.906690 0.136680 1.405943
v -0.906690 0.136680 -0.444971
v 0.944225 0.136680 1.405943
v 0.944225 0.136680 -0.444971
v 0.018767 0.136680 0.480486
v 0.948167 0.886340 -0.444971
v 0.948167 0.886340 1.405943
v 0.948167 0.844562 -0.444971
v 0.948167 0.844562 1.405943
v -0.824245 0.248762 -0.444971
v -0.824245 0.248762 1.405943
v -0.981233 0.122363 1.480486
v -0.981233 0.245556 0.480486
v -0.981233 0.122363 -0.519514
v -0.981233 -0.000831 0.480486
v 0.018767 0.245556 -0.519514
v 1.018767 0.122363 -0.519514
v 0.018767 -0.000831 -0.519514
v 1.018767 0.245556 0.480486
v 1.018767 0.122363 1.480486
v 1.018767 -0.000831 0.480486
v 0.018767 0.245556 1.480486
v 0.018767 -0.000831 1.480486
v -0.906690 0.245556 0.480486
v 0.018767 0.245556 -0.444971
v 0.944225 0.245556 0.480486
v 0.018767 0.245556 1.405943
v -0.943961 0.245556 1.443215
v 0.981496 0.245556 1.443215
v 0.981496 0.245556 -0.482243
v -0.943961 0.245556 -0.482243
v -0.906690 0.136680 0.480486
v 0.018767 0.136680 -0.444971
v 0.944225 0.136680 0.480486
v 0.018767 0.136680 1.405943
v -0.906690 0.191118 1.405943
v 0.944225 0.191118 1.405943
v 0.944225 0.191118 -0.444971
v -0.906690 0.191118 -0.444971
v -0.443961 0.136680 0.943215
v 0.020739 0.565948 -0.444971
v 0.020739 0.565948 1.405943
v 0.948167 0.886340 0.480486
v 0.481496 0.136680 0.943215
v 0.481496 0.136680 0.017757
v -0.443961 0.136680 0.017757
v 0.948167 0.844562 0.480486
v 0.948167 0.865451 1.405943
v 0.948167 0.865451 -0.444971
v -0.824245 0.248762 0.480486
v 0.061961 0.546662 1.405943
v 0.061961 0.546662 -0.444971
v -0.865467 0.247159 1.405943
v -0.865467 0.247159 -0.444971
v -0.981233 0.122363 0.480486
v 0.018767 0.122363 -0.519514
v 1.018767 0.122363 0.480486
v 0.018767 0.122363 1.480486
v 0.018767 -0.000831 0.480486
v 0.056039 0.245556 1.443215
v 0.981496 0.245556 0.443215
v -0.018504 0.245556 -0.482243
v -0.943961 0.245556 0.517757
v 0.018767 0.191118 1.405943
v 0.944225 0.191118 0.480486
v 0.018767 0.191118 -0.444971
v -0.906690 0.191118 0.480486
v 0.020739 0.565948 0.480486
v 0.948167 0.865451 0.480486
v 0.061961 0.546662 0.480486
v 0.020739 0.545059 1.405943
v 0.020739 0.545059 -0.444971
vt 0.558650 0.852627
vt 0.492826 0.787153
vt 0.558650 0.721179
vt 0.065950 0.764246
vt 0.000000 0.698397
vt 0.065950 0.632548
vt 0.773063 0.489662
vt 0.680398 0.489662
vt 0.680398 0.396538
vt 0.731405 0.643575
vt 0.665456 0.577726
vt 0.731405 0.511878
vt 0.812297 0.396538
vt 0.746348 0.330689
vt 0.812297 0.264840
vt 0.979053 0.823017
vt 0.975714 0.819414
vt 0.979053 0.733296
vt 0.975714 0.729694
vt 0.979053 0.643575
vt 0.975894 0.975611
vt 0.972555 0.972008
vt 0.975894 0.885890
vt 0.973147 0.089721
vt 0.969808 0.086118
vt 0.973147 0.000000
vt 0.908885 0.396538
vt 0.950099 0.396538
vt 0.950099 0.482721
vt 0.381619 0.962969
vt 0.340561 0.962969
vt 0.340561 0.876786
vt 0.922004 0.861206
vt 0.880790 0.861206
vt 0.880790 0.775024
vt 0.991047 0.396538
vt 0.991047 0.482721
vt 0.172630 0.250425
vt 0.172630 0.500851
vt 0.086315 0.500851
vt 0.921279 0.264840
vt 0.921279 0.351023
vt 0.878122 0.307931
vt 0.921790 0.131698
vt 0.921790 0.217880
vt 0.878633 0.174789
vt 0.906337 0.511878
vt 0.906337 0.598060
vt 0.863180 0.554969
vt 0.908885 0.482721
vt 0.865728 0.439629
vt 0.226635 0.897498
vt 0.211137 0.894673
vt 0.226635 0.809891
vt 0.599506 0.264840
vt 0.599506 0.496357
vt 0.513191 0.496357
vt 0.142153 0.871476
vt 0.138993 0.631661
vt 0.142153 0.629161
vt 0.253522 0.497463
vt 0.253522 0.754593
vt 0.248210 0.739720
vt 0.599506 0.802674
vt 0.665330 0.736700
vt 0.665330 0.868148
vt 0.172630 0.563312
vt 0.238580 0.497463
vt 0.238579 0.629161
vt 0.227531 0.852877
vt 0.227531 0.759753
vt 0.320196 0.852877
vt 0.492826 0.562206
vt 0.558776 0.496357
vt 0.558776 0.628055
vt 0.731406 0.577726
vt 0.797355 0.511878
vt 0.797355 0.643575
vt 0.687781 0.736700
vt 0.687781 0.829824
vt 0.684305 0.740171
vt 0.599444 0.831796
vt 0.599444 0.924921
vt 0.595968 0.835267
vt 0.595968 0.591860
vt 0.595968 0.684985
vt 0.592491 0.595331
vt 0.691257 0.829824
vt 0.691257 0.922949
vt 0.687781 0.833295
vt 0.558650 0.798951
vt 0.595842 0.721179
vt 0.595842 0.816682
vt 0.381619 0.876786
vt 0.422676 0.962969
vt 0.553860 0.938810
vt 0.553860 0.852627
vt 0.595074 0.938810
vt 0.268479 0.913817
vt 0.268479 1.000000
vt 0.227531 0.913817
vt 0.258944 0.250425
vt 0.258944 0.000000
vt 0.467934 0.977209
vt 0.467934 0.891026
vt 0.483688 0.977209
vt 0.599506 0.294906
vt 0.680398 0.264840
vt 0.680398 0.511878
vt 0.330820 0.753487
vt 0.325508 0.738614
vt 0.330820 0.496357
vt 0.142153 0.631661
vt 0.145312 0.629161
vt 0.145312 0.871476
vt 0.332090 0.498857
vt 0.335249 0.496357
vt 0.335249 0.738672
vt 0.138993 0.629161
vt 0.138993 0.871476
vt 0.135833 0.631661
vt 0.595968 0.498857
vt 0.599127 0.496357
vt 0.599127 0.738672
vt 0.243891 0.754593
vt 0.238580 0.739720
vt 0.243891 0.497463
vt 0.406511 0.724199
vt 0.411823 0.481942
vt 0.411823 0.739072
vt 0.417135 0.481942
vt 0.422447 0.496815
vt 0.417135 0.739072
vt 0.594808 0.231517
vt 0.508493 0.231517
vt 0.594808 0.000000
vt 0.253522 0.250425
vt 0.172630 0.280491
vt 0.681123 0.231517
vt 0.681122 0.000000
vt 0.320196 0.844535
vt 0.335695 0.759753
vt 0.335695 0.847359
vt 0.076532 0.857371
vt 0.076532 0.944977
vt 0.061034 0.942153
vt 0.076532 0.943553
vt 0.092287 0.943553
vt 0.086315 0.250425
vt 0.172630 0.000000
vt 0.000000 0.500851
vt 0.000000 0.250425
vt 0.086315 0.000000
vt 0.958471 0.342705
vt 0.995467 0.264840
vt 0.995467 0.360229
vt 1.000000 0.131698
vt 1.000000 0.227087
vt 0.963004 0.209563
vt 0.840838 0.974769
vt 0.877834 0.896904
vt 0.877834 0.992293
vt 0.558776 0.574129
vt 0.595968 0.496357
vt 0.092665 0.850429
vt 0.133879 0.936611
vt 0.092665 0.936611
vt 0.890283 0.729758
vt 0.890283 0.643575
vt 0.931497 0.729758
vt 0.931497 0.643575
vt 0.972555 0.729758
vt 0.963062 0.947389
vt 0.922004 0.947389
vt 0.922004 0.775024
vt 0.963062 0.861206
vt 0.963004 0.217881
vt 0.681934 0.954331
vt 0.640720 0.868148
vt 0.681934 0.868148
vt 0.880790 0.947389
vt 0.335695 0.940484
vt 0.332219 0.850830
vt 0.687781 0.740171
vt 0.691257 0.736700
vt 0.687781 0.922949
vt 0.684305 0.833295
vt 0.592491 0.591860
vt 0.592491 0.684985
vt 0.589015 0.595331
vt 0.684305 0.829824
vt 0.680829 0.740171
vt 0.684305 0.736700
vt 0.425923 0.724257
vt 0.425923 0.817382
vt 0.422447 0.727728
vt 0.340561 0.846611
vt 0.340561 0.939736
vt 0.337085 0.850082
vt 0.337085 0.756958
vt 0.340561 0.753487
vt 0.135376 0.596354
vt 0.135376 0.689478
vt 0.131900 0.599824
vt 0.599444 0.738672
vt 0.595968 0.742143
vt 0.172568 0.593975
vt 0.169091 0.504321
vt 0.758723 0.775273
vt 0.758723 0.868398
vt 0.755247 0.778744
vt 0.238580 0.722285
vt 0.145312 0.722285
vt 0.586093 0.721179
vt 0.492826 0.628055
vt 0.586093 0.628055
vt 0.692773 0.709424
vt 0.758723 0.643575
vt 0.426876 0.562206
vt 0.492826 0.496357
vt 0.665456 0.511878
vt 0.665456 0.643575
vt 0.599506 0.577726
vt 0.254246 0.562206
vt 0.320196 0.496357
vt 0.320196 0.628055
vt 0.773063 0.396538
vt 0.865728 0.489662
vt 0.492612 0.759753
vt 0.492612 0.891026
vt 0.426876 0.825814
vt 0.824547 0.709637
vt 0.890283 0.774849
vt 0.340561 0.679489
vt 0.406511 0.613640
vt 0.406511 0.745338
vt 0.746348 0.264840
vt 0.746348 0.396538
vt 0.680398 0.330689
vt 0.426876 0.693904
vt 0.492826 0.759753
vt 0.340561 0.811312
vt 0.406386 0.745338
vt 0.406386 0.876786
vt 0.824547 0.643575
vt 0.824547 0.775024
vt 0.758723 0.709549
vt 0.797355 0.577851
vt 0.863180 0.511878
vt 0.863180 0.643326
vt 0.335249 0.753487
vt 0.340561 0.511230
vt 0.325508 0.753487
vt 0.320196 0.738614
vt 0.325508 0.496357
vt 0.417135 0.496815
vt 0.247051 0.739778
vt 0.243891 0.499963
vt 0.247051 0.497463
vt 0.972555 0.646076
vt 0.975714 0.643575
vt 0.975714 0.885890
vt 0.425607 0.724257
vt 0.422447 0.484443
vt 0.425607 0.481942
vt 0.513191 0.264840
vt 0.426876 0.496357
vt 0.340561 0.496357
vt 0.254246 0.496357
vt 0.340561 0.264840
vt 0.426876 0.250425
vt 0.426876 0.481942
vt 0.340561 0.481942
vt 0.422010 0.826679
vt 0.406511 0.823854
vt 0.422010 0.739072
vt 0.665330 0.821482
vt 0.680829 0.736700
vt 0.680829 0.824306
vt 0.211137 0.807067
vt 0.226635 0.722285
vt 0.819757 0.896904
vt 0.758723 0.835964
vt 0.819757 0.835964
vt 0.061034 0.857371
vt 0.061034 0.918311
vt 0.000000 0.918311
vt 0.753807 0.897154
vt 0.692773 0.836214
vt 0.753807 0.836214
vt 0.145312 0.914674
vt 0.206346 0.853733
vt 0.206346 0.914674
vt 0.880790 0.835964
vt 0.135823 0.764246
vt 0.135823 0.850429
vt 0.092665 0.807337
vt 0.288565 0.852877
vt 0.288565 0.913817
vt 0.692773 0.775273
vt 0.753807 0.775273
vt 0.921916 0.000000
vt 0.921916 0.086183
vt 0.878758 0.043091
vt 0.819757 0.775024
vt 0.553860 0.913568
vt 0.492826 0.913568
vt 0.880790 0.896904
vt 0.426876 0.000000
vt 0.340561 0.250425
vt 0.426876 0.028045
vt 0.508493 0.000000
vt 0.508493 0.264840
vt 0.258944 0.028045
vt 0.340561 0.000000
vt 0.947551 0.511878
vt 0.988499 0.511878
vt 0.988499 0.598060
vt 0.533774 0.913568
vt 0.533774 0.999750
vt 0.692773 0.897154
vt 0.733721 0.897154
vt 0.733721 0.983337
vt 0.947551 0.598060
vt 0.131900 0.578622
vt 0.169091 0.500851
vt 0.169091 0.596354
vt 0.958471 0.360343
vt 0.921279 0.342612
vt 0.958471 0.264840
vt 0.840838 0.983087
vt 0.799780 0.983087
vt 0.799780 0.896904
vt 0.758723 0.983087
vt 0.758723 0.896904
vt 0.426876 0.977209
vt 0.426876 0.891026
vt 0.329779 0.852877
vt 0.329779 0.939060
vt 0.640720 0.954331
vt 0.599506 0.868148
vt 0.963130 0.086183
vt 0.966401 0.954465
vt 0.963062 0.950862
vt 0.966401 0.864744
vt 0.966469 0.086118
vt 0.969808 0.000000
vt 0.969808 0.089721
vt 0.969740 0.954465
vt 0.966401 0.950862
vt 0.969740 0.864744
vt 0.209685 0.943454
vt 0.206346 0.939851
vt 0.209685 0.853733
vt 0.966401 0.861142
vt 0.969740 0.775024
vt 0.139173 0.961196
vt 0.135833 0.957594
vt 0.139173 0.871476
vt 0.963062 0.861142
vt 0.966401 0.775024
vt 0.422676 0.962904
vt 0.426015 0.876786
vt 0.426015 0.966507
vt 0.966469 0.089721
vt 0.963130 0.086118
vt 0.966469 0.000000
vt 0.145312 0.961196
vt 0.141973 0.957594
vt 0.755247 0.954516
vt 0.758586 0.868398
vt 0.758586 0.958118
vt 0.976486 0.089721
vt 0.973147 0.086118
vt 0.976486 0.000000
vt 0.692773 0.643575
vt 0.692773 0.736700
vt 0.599506 0.736700
vt 0.065950 0.698397
vt 0.131900 0.632548
vt 0.131900 0.764246
vt 0.813022 0.131698
vt 0.747072 0.065849
vt 0.813022 0.000000
vt 0.065950 0.566699
vt 0.131900 0.500851
vt 0.340561 0.547791
vt 0.406511 0.481942
vt 0.000000 0.566699
vt 0.065950 0.500851
vt 0.878758 0.131273
vt 0.813022 0.066062
vt 0.878758 0.000000
vt 0.812897 0.197760
vt 0.878633 0.131698
vt 0.878633 0.262971
vt 0.092665 0.857371
vt 0.000000 0.857371
vt 0.000000 0.764246
vt 0.320196 0.759753
vt 0.254246 0.693904
vt 0.681122 0.197547
vt 0.747072 0.131698
vt 0.747072 0.263396
vt 0.681122 0.065849
vt 0.747072 0.000000
vt 0.211137 0.853733
vt 0.145312 0.788259
vt 0.211137 0.722285
vt 0.812297 0.330814
vt 0.878122 0.264840
vt 0.878122 0.396288
vt 0.812897 0.263146
vt 0.747072 0.197672
vt 0.812897 0.131698
vn -1.000000 0.000000 0.000000
vn 0.000000 0.000000 -1.000000
vn 1.000000 0.000000 0.000000
vn 0.000000 0.000000 1.000000
vn 0.000000 -1.000000 0.000000
vn 0.000000 1.000000 0.000000
vn 0.326500 -0.945200 0.000000
vn -0.318600 0.947900 0.000000
usemtl None
s off
f 4/1/1 26/2/1 67/3/1
f 8/4/2 29/5/2 68/6/2
f 6/7/3 32/8/3 69/9/3
f 2/10/4 24/11/4 70/12/4
f 3/13/5 30/14/5 71/15/5
f 6/16/6 41/17/6 72/18/6
f 8/18/6 42/19/6 73/20/6
f 4/21/6 43/22/6 74/23/6
f 2/24/6 40/25/6 75/26/6
f 11/27/2 49/28/2 76/29/2
f 12/30/1 50/31/1 77/32/1
f 10/33/4 51/34/4 78/35/4
f 9/28/3 48/36/3 79/37/3
f 10/38/7 53/39/7 80/40/7
f 13/41/6 47/42/6 52/43/6
f 15/44/6 46/45/6 56/46/6
f 16/47/6 45/48/6 57/49/6
f 14/27/6 44/50/6 58/51/6
f 18/52/1 61/53/1 81/54/1
f 20/55/8 64/56/8 82/57/8
f 21/58/2 63/59/2 83/60/2
f 10/61/2 53/62/2 84/63/2
f 2/64/1 25/65/1 24/66/1
f 4/67/2 28/68/2 26/69/2
f 8/70/3 31/71/3 29/72/3
f 6/73/4 34/74/4 32/75/4
f 1/76/5 27/77/5 35/78/5
f 2/79/6 34/80/6 40/81/6
f 6/82/6 31/83/6 41/84/6
f 8/85/6 28/86/6 42/87/6
f 4/88/6 25/89/6 43/90/6
f 9/91/2 39/92/2 48/93/2
f 11/30/1 38/94/1 49/95/1
f 12/96/4 37/97/4 50/98/4
f 10/99/3 36/100/3 51/101/3
f 9/102/7 36/38/7 54/103/7
f 19/104/1 55/105/1 60/106/1
f 21/107/8 59/108/8 63/109/8
f 19/110/2 60/111/2 54/112/2
f 22/113/2 66/114/2 64/115/2
f 64/116/2 84/117/2 20/118/2
f 64/119/2 66/120/2 84/121/2
f 66/122/2 10/123/2 84/124/2
f 54/125/2 83/126/2 9/127/2
f 54/128/2 60/129/2 83/130/2
f 60/131/2 21/132/2 83/133/2
f 63/134/8 82/135/8 23/136/8
f 63/137/8 59/61/8 82/138/8
f 59/139/8 20/134/8 82/140/8
f 60/141/1 81/142/1 21/143/1
f 60/144/1 55/145/1 81/146/1
f 55/147/1 18/144/1 81/148/1
f 54/38/7 80/149/7 19/150/7
f 54/151/7 36/149/7 80/40/7
f 36/149/7 10/152/7 80/153/7
f 51/154/3 79/155/3 14/156/3
f 51/157/3 36/158/3 79/159/3
f 36/160/3 9/161/3 79/162/3
f 50/163/4 78/164/4 16/85/4
f 50/165/4 37/166/4 78/167/4
f 37/168/4 10/169/4 78/170/4
f 49/170/1 77/171/1 15/172/1
f 49/33/1 38/173/1 77/174/1
f 38/33/1 12/175/1 77/176/1
f 48/45/2 76/44/2 13/177/2
f 48/178/2 39/179/2 76/180/2
f 39/181/2 11/34/2 76/174/2
f 43/143/6 75/182/6 10/183/6
f 43/88/6 25/184/6 75/185/6
f 25/80/6 2/186/6 75/187/6
f 42/188/6 74/189/6 12/190/6
f 42/191/6 28/192/6 74/193/6
f 28/194/6 4/195/6 74/196/6
f 41/197/6 73/198/6 11/199/6
f 41/197/6 31/200/6 73/201/6
f 31/202/6 8/203/6 73/204/6
f 40/205/6 72/82/6 9/206/6
f 40/207/6 34/208/6 72/39/6
f 34/209/6 6/210/6 72/211/6
f 35/212/5 71/213/5 5/69/5
f 35/214/5 27/215/5 71/216/5
f 27/217/5 3/218/5 71/209/5
f 32/219/4 70/220/4 5/215/4
f 32/221/4 34/222/4 70/223/4
f 34/224/4 2/225/4 70/226/4
f 29/7/3 69/227/3 7/228/3
f 29/229/3 31/230/3 69/231/3
f 31/232/3 6/169/3 69/233/3
f 26/234/2 68/235/2 3/236/2
f 26/237/2 28/238/2 68/239/2
f 28/240/2 8/215/2 68/241/2
f 24/242/1 67/243/1 1/244/1
f 24/245/1 25/246/1 67/247/1
f 25/248/1 4/249/1 67/250/1
f 84/251/2 61/117/2 20/252/2
f 84/253/2 53/254/2 61/255/2
f 53/130/2 18/129/2 61/256/2
f 83/257/2 65/258/2 9/259/2
f 83/260/2 63/261/2 65/262/2
f 63/263/2 23/264/2 65/265/2
f 82/266/8 62/57/8 23/267/8
f 82/268/8 64/269/8 62/270/8
f 64/271/8 22/272/8 62/273/8
f 81/274/1 59/275/1 21/276/1
f 81/277/1 61/278/1 59/279/1
f 61/54/1 20/280/1 59/281/1
f 58/282/6 52/283/6 17/284/6
f 58/285/6 44/286/6 52/287/6
f 44/288/6 13/289/6 52/290/6
f 57/291/6 58/292/6 17/293/6
f 57/35/6 45/294/6 58/284/6
f 45/295/6 14/296/6 58/297/6
f 56/101/6 57/298/6 17/299/6
f 56/300/6 46/301/6 57/290/6
f 46/302/6 16/303/6 57/304/6
f 52/283/6 56/305/6 17/284/6
f 52/97/6 47/306/6 56/307/6
f 47/282/6 15/294/6 56/308/6
f 80/309/7 55/271/7 19/310/7
f 80/311/7 53/312/7 55/313/7
f 53/270/7 18/314/7 55/315/7
f 79/316/3 44/317/3 14/318/3
f 79/319/3 48/320/3 44/307/3
f 48/321/3 13/322/3 44/323/3
f 78/324/4 45/48/4 16/47/4
f 78/325/4 51/326/4 45/327/4
f 51/328/4 14/329/4 45/330/4
f 77/331/1 46/332/1 15/333/1
f 77/334/1 50/335/1 46/332/1
f 50/104/1 16/336/1 46/337/1
f 76/298/2 47/338/2 13/339/2
f 76/179/2 49/340/2 47/341/2
f 49/342/2 15/303/2 47/302/2
f 75/343/6 36/344/6 10/345/6
f 75/346/6 40/347/6 36/348/6
f 40/349/6 9/350/6 36/351/6
f 74/352/6 37/353/6 12/354/6
f 74/355/6 43/356/6 37/351/6
f 43/357/6 10/358/6 37/359/6
f 73/345/6 38/360/6 11/361/6
f 73/362/6 42/363/6 38/364/6
f 42/365/6 12/366/6 38/367/6
f 72/368/6 39/369/6 9/115/6
f 72/370/6 41/371/6 39/372/6
f 41/373/6 11/374/6 39/375/6
f 71/376/5 33/377/5 5/378/5
f 71/379/5 30/380/5 33/381/5
f 30/382/5 7/383/5 33/384/5
f 70/380/4 35/385/4 5/386/4
f 70/387/4 24/388/4 35/235/4
f 24/6/4 1/389/4 35/390/4
f 69/391/3 33/392/3 7/393/3
f 69/394/3 32/395/3 33/396/3
f 32/397/3 5/398/3 33/399/3
f 68/400/2 30/401/2 3/226/2
f 68/402/2 29/403/2 30/404/2
f 29/403/2 7/405/2 30/406/2
f 67/407/1 27/408/1 1/409/1
f 67/410/1 26/411/1 27/412/1
f 26/413/1 3/414/1 27/415/1
